<?xml version="1.0" encoding="UTF-8"?>
<!DOCTYPE svg PUBLIC "-//W3C//DTD SVG 1.1//EN" "http://www.w3.org/Graphics/SVG/1.1/DTD/svg11.dtd">
<!-- Creator: CorelDRAW X8 -->
<svg xmlns="http://www.w3.org/2000/svg" xml:space="preserve" width="4.99999in" height="0.786661in" version="1.1" style="shape-rendering:geometricPrecision; text-rendering:geometricPrecision; image-rendering:optimizeQuality; fill-rule:evenodd; clip-rule:evenodd"
viewBox="0 0 5000 787"
 xmlns:xlink="http://www.w3.org/1999/xlink">
 <defs>
  <style type="text/css">
   <![CDATA[
    .fil1 {fill:#007EC1;fill-rule:nonzero}
    .fil5 {fill:#1A4466;fill-rule:nonzero}
    .fil3 {fill:#276EA8;fill-rule:nonzero}
    .fil0 {fill:#383332;fill-rule:nonzero}
    .fil4 {fill:#E8EAEB;fill-rule:nonzero}
    .fil2 {fill:#F6F7F8;fill-rule:nonzero}
   ]]>
  </style>
 </defs>
 <g id="Layer_x0020_1">
  <metadata id="CorelCorpID_0Corel-Layer"/>
  <g id="_2565278563680">
   <g id="_1812098045968">
    <path class="fil0" d="M2577 197c0,-99 74,-179 177,-179 72,0 128,37 158,89l-57 34c-22,-39 -55,-60 -101,-60 -64,0 -113,52 -113,116 0,64 48,115 116,115 52,0 88,-29 100,-75l-111 0 0 -62 181 0 0 26c0,94 -67,174 -170,174 -108,0 -180,-83 -180,-178z"/>
    <path class="fil0" d="M3045 246l91 0 -45 -131 -46 131zm13 -223l65 0 124 347 -68 0 -21 -62 -135 0 -21 62 -67 0 123 -347z"/>
    <polygon class="fil0" points="3291,23 3355,23 3355,308 3482,308 3482,370 3291,370 "/>
    <path class="fil0" d="M3634 246l91 0 -46 -131 -45 131zm12 -223l65 0 124 347 -67 0 -22 -62 -134 0 -22 62 -67 0 123 -347z"/>
    <polygon class="fil0" points="4008,251 3937,370 3864,370 3970,195 3866,23 3939,23 4008,139 4078,23 4151,23 4046,195 4153,370 4081,370 "/>
    <polygon class="fil0" points="4284,206 4174,23 4245,23 4317,143 4389,23 4460,23 4349,207 4349,370 4284,370 "/>
    <path class="fil1" d="M2626 441l0 111 46 0c37,0 60,-24 60,-56 0,-31 -23,-55 -60,-55l-46 0zm-16 -15l63 0c45,0 76,30 76,70 0,40 -31,71 -76,71l-47 0 0 66 -16 0 0 -207z"/>
    <path class="fil1" d="M2816 560l86 0 -43 -112 -43 112zm34 -134l18 0 79 207 -17 0 -22 -58 -98 0 -22 58 -18 0 80 -207z"/>
    <path class="fil1" d="M3017 441l0 100 47 0c31,0 53,-24 53,-50 0,-29 -22,-50 -53,-50l-47 0zm56 115l-56 0 0 77 -17 0 0 -207 65 0c39,0 68,29 68,65 0,27 -18,52 -45,60l46 82 -18 0 -43 -77z"/>
    <path class="fil1" d="M3226 560l86 0 -43 -112 -43 112zm34 -134l18 0 80 207 -18 0 -22 -58 -98 0 -22 58 -18 0 80 -207z"/>
    <path class="fil1" d="M3390 599l35 -28c11,18 27,28 46,28 20,0 31,-13 31,-28 0,-17 -21,-23 -43,-29 -28,-9 -59,-20 -59,-59 0,-34 29,-60 69,-60 33,0 53,13 70,30l-32 24c-9,-13 -21,-20 -38,-20 -19,0 -29,11 -29,24 0,17 20,22 43,29 28,9 60,22 60,62 0,32 -27,64 -72,64 -38,0 -62,-16 -81,-37z"/>
    <polygon class="fil1" points="3584,426 3622,426 3622,633 3584,633 "/>
    <polygon class="fil1" points="3669,426 3792,426 3792,463 3708,463 3708,511 3792,511 3792,548 3708,548 3708,596 3792,596 3792,633 3669,633 "/>
    <polygon class="fil1" points="3835,426 3873,426 3936,513 4001,426 4038,426 4038,633 3999,633 3999,488 3935,574 3873,489 3873,633 3835,633 "/>
    <path class="fil1" d="M4121 462l0 76 30 0c23,0 38,-17 38,-38 0,-21 -15,-38 -38,-38l-30 0zm-38 -36l71 0c42,0 74,33 74,74 0,41 -32,74 -75,74l-32 0 0 59 -38 0 0 -207z"/>
    <path class="fil1" d="M4332 535c32,0 42,-18 42,-38 0,-21 -13,-35 -42,-35l-24 0 0 73 24 0zm-63 98l0 -207 66 0c49,0 78,29 78,72 0,25 -13,48 -35,61l42 74 -45 0 -33 -63 -34 0 0 63 -39 0z"/>
    <polygon class="fil1" points="4456,426 4579,426 4579,463 4495,463 4495,511 4579,511 4579,548 4495,548 4495,596 4579,596 4579,633 4456,633 "/>
    <polygon class="fil1" points="4609,196 4505,21 4622,21 4727,196 4622,370 4505,370 "/>
    <polygon class="fil1" points="4803,196 4699,21 4816,21 4921,196 4816,370 4699,370 "/>
    <polygon class="fil2" points="4619,504 4699,370 4817,370 4737,504 4817,637 4699,637 "/>
    <polygon class="fil2" points="4802,504 4882,370 5000,370 4920,504 5000,637 4882,637 "/>
    <polygon class="fil3" points="4862,196 4758,21 4816,21 4921,196 4816,370 4758,370 "/>
    <polygon class="fil3" points="4668,196 4564,21 4623,21 4727,196 4623,370 4564,370 "/>
    <polygon class="fil4" points="4618,504 4698,370 4758,370 4678,504 4758,637 4698,637 "/>
    <polygon class="fil4" points="4802,504 4882,370 4942,370 4862,504 4942,637 4882,637 "/>
   </g>
   <path class="fil5" d="M70 246c0,-127 0,-149 -1,-175 -2,-28 -8,-41 -35,-46 -7,-2 -20,-3 -28,-3 -3,0 -6,-1 -6,-4 0,-5 4,-7 13,-7 36,0 87,2 91,2 9,0 71,-2 96,-2 50,0 105,5 148,36 20,14 55,54 55,110 0,59 -25,119 -97,186 66,85 121,157 168,207 43,46 78,55 98,59 16,2 27,2 32,2 4,0 7,2 7,5 0,5 -5,6 -19,6l-58 0c-45,0 -65,-4 -86,-15 -35,-19 -63,-58 -109,-119 -34,-44 -72,-98 -89,-120 -3,-3 -5,-4 -10,-4l-99 -2c-4,0 -6,2 -6,6l0 20c0,77 0,141 4,175 2,24 7,42 32,45 11,1 29,3 36,3 5,0 6,2 6,5 0,4 -4,6 -12,6 -45,0 -96,-2 -100,-2 -1,0 -52,2 -76,2 -9,0 -13,-1 -13,-6 0,-3 2,-5 7,-5 7,0 16,-2 24,-3 16,-3 20,-21 23,-45 4,-34 4,-98 4,-175l0 -142 0 0zm65 70l0 0c0,4 2,7 6,10 12,7 49,13 85,13 19,0 42,-3 60,-16 28,-19 49,-63 49,-124 0,-102 -53,-162 -139,-162 -25,0 -47,2 -55,5 -4,1 -6,5 -6,10l0 264 0 0z"/>
   <path class="fil5" d="M1903 390l-6 17 -2 6 8 -23c0,0 0,0 0,0z"/>
   <path class="fil5" d="M2316 611c-8,0 -20,-1 -32,-5 -17,-5 -41,-18 -70,-90 -49,-122 -176,-456 -188,-487 -10,-25 -13,-29 -18,-29 -5,0 -8,5 -18,31l-183 502c-15,41 -31,72 -68,76 -7,1 -18,2 -24,2 -1,0 -2,0 -3,1 -9,-1 -22,-3 -35,-7 -29,-9 -34,-47 -36,-71l-49 -423c-1,-13 -5,-18 -10,-18 -5,0 -8,4 -12,11l-206 426 -215 -427c-4,-8 -10,-10 -15,-10 -4,0 -7,4 -8,12l-52 449c-3,26 -4,51 -27,55 -11,1 -15,2 -21,2 -4,0 -7,2 -7,5 0,5 4,6 12,6 19,0 53,-2 60,-2 5,0 39,2 66,2 8,0 13,-1 13,-6 0,-3 -4,-5 -6,-5 -5,0 -15,-1 -28,-4 -10,-2 -17,-9 -17,-19 0,-12 0,-25 1,-35l28 -311 3 0c12,29 69,144 91,188 17,37 64,125 83,159 14,25 18,32 24,32 7,0 11,-7 25,-37l172 -351 1 0 34 350c2,13 1,23 -3,24 -3,1 -5,3 -5,6 0,3 3,5 20,7 26,2 105,3 121,3 3,0 6,0 8,-1 1,0 1,0 1,0 38,0 83,-2 92,-2 9,0 44,2 63,2 7,0 12,-1 12,-6 0,-3 -2,-5 -8,-5l-8 0c-14,0 -31,-7 -31,-23 0,-15 4,-34 11,-55l41 -120 0 0 2 -6 6 -17c0,0 0,0 0,0l24 -69 62 -190c4,-12 8,-12 12,0l67 190 37 102 62 165c5,12 0,20 -5,21 -3,1 -5,3 -5,6 0,5 9,5 24,6 56,1 115,1 127,1 9,0 16,-1 16,-6 0,-4 -3,-5 -8,-5l0 0z"/>
   <path class="fil5" d="M1016 336l-8 -12 -38 -55c0,0 0,0 0,0 -4,-5 -7,-12 -7,-19 0,-7 2,-13 6,-17l0 -1c2,-1 3,-3 3,-6 0,0 0,0 0,-1 0,0 0,0 0,0l0 0c-2,-30 -9,-58 -21,-84 6,-5 11,-11 16,-19l14 -21 -23 9c-8,3 -15,4 -21,5 0,-1 -1,-1 -1,-1 28,-12 34,-32 40,-58l1 -2c3,-9 7,-20 9,-25l11 -24 -22 14c-8,5 -18,11 -23,14 -4,2 -7,3 -10,5 -17,8 -31,14 -41,33 -1,-1 -1,-2 -2,-2 0,-5 1,-10 3,-15l6 -21 -18 12c-4,2 -8,5 -11,7 -38,-28 -86,-45 -137,-45 -127,0 -230,103 -230,230 0,2 0,4 0,5 -13,13 -24,32 -32,47l-7 14 11 11c3,4 9,10 16,16 14,12 27,19 39,22 1,0 3,0 4,1 5,7 10,15 15,22l0 0c30,39 48,88 49,141 37,10 71,30 99,56l0 0c35,29 79,47 129,48 0,0 7,-57 9,-78 3,-20 20,-22 27,-22 7,0 57,0 65,0 1,0 1,0 1,0 21,0 38,-17 38,-37 0,-11 -4,-21 -12,-28 4,-7 8,-14 14,-19l0 0 -1 0c3,-3 5,-6 5,-10 0,-6 -5,-11 -10,-13l0 0c-1,0 -2,-1 -2,-2 0,-2 1,-3 2,-3 1,0 1,0 1,1 8,-1 14,-7 14,-15 0,-3 -5,-30 -5,-30 0,-2 2,-4 4,-4 0,0 2,0 3,0 14,0 25,-9 29,-21 0,0 0,0 0,-1 0,-1 -1,-2 -1,-2zm-112 -249l0 0c8,-26 21,-33 41,-42 3,-1 7,-3 11,-5 5,-3 16,-10 23,-14 -3,7 -7,18 -10,26l0 2c-8,27 -13,46 -43,55 -7,2 -14,3 -19,3 -3,0 -6,0 -7,0 0,-3 0,-12 4,-25l0 0zm-42 2l0 0c7,-15 14,-26 32,-38 -4,13 -4,24 -4,34 0,21 0,37 -33,53 -1,-8 -2,-35 5,-49l0 0zm-57 36l0 0c10,-18 20,-30 43,-42 -7,16 -8,29 -9,42 -1,24 -3,43 -46,58 1,-9 3,-42 12,-58zm-66 41l0 0c12,-16 23,-27 47,-36 -9,15 -11,28 -13,40 -4,24 -8,43 -51,53 1,-9 6,-41 17,-57zm-20 4l0 0c-9,13 -13,26 -16,38 -7,23 -12,41 -57,47 2,-9 11,-41 24,-55 13,-15 25,-24 49,-30l0 0zm-122 57l0 0c15,-14 28,-22 53,-26 -11,13 -17,25 -21,37 -9,22 -16,39 -61,40 3,-9 15,-39 29,-51l0 0zm-75 18l0 0c16,-13 26,-19 55,-20 -12,11 -19,23 -25,34 -10,19 -18,34 -52,34 -4,0 -8,0 -13,0 5,-9 19,-36 35,-48l0 0zm42 102l0 0c-7,0 -15,-1 -24,-3 -10,-2 -22,-9 -35,-21 -7,-5 -13,-11 -15,-14 15,-5 27,-8 38,-8 14,0 28,4 44,13 5,3 9,6 13,9 6,5 12,10 22,12 -16,8 -29,12 -43,12l0 0zm76 -23l0 0c-5,0 -9,0 -14,-1 -10,-1 -23,-7 -37,-16 -8,-5 -14,-10 -17,-13 18,-8 32,-12 46,-12 11,0 23,3 36,8 5,2 10,5 14,8 7,4 13,9 23,10 -18,11 -33,16 -51,16l0 0zm69 -31l0 0c-11,0 -24,-4 -39,-12 -8,-4 -15,-8 -18,-11 20,-12 36,-17 52,-17 9,0 19,1 29,4 6,2 10,4 15,6 7,4 14,8 23,8 0,0 1,0 1,-1 -23,19 -41,23 -63,23l0 0zm79 -39l0 0c-1,1 -3,1 -5,1 -20,0 -46,-13 -54,-17 22,-17 39,-24 60,-24 6,0 13,1 20,2 6,1 10,3 15,4 7,3 12,5 20,5 2,0 3,0 5,0 -21,21 -39,27 -61,29l0 0zm75 -47l0 0c-3,1 -7,1 -11,1 -19,0 -42,-8 -50,-11 24,-23 44,-31 71,-31 2,0 4,0 7,0 6,0 11,1 16,3 5,1 10,3 16,3 3,0 6,-1 9,-2 -19,24 -36,32 -58,37l0 0zm53 -55l0 0c-4,1 -10,2 -16,2 -14,0 -29,-4 -35,-5 22,-26 39,-26 55,-26l5 0c11,0 23,0 35,-5 -13,20 -27,28 -44,34l0 0z"/>
   <path class="fil5" d="M848 785l0 -96 33 0c8,0 13,0 17,1 6,1 11,4 15,7 5,4 9,10 11,16 3,7 4,15 4,23 0,8 -1,14 -3,20 -1,6 -4,10 -6,14 -3,4 -6,7 -9,9 -3,2 -7,4 -12,5 -4,1 -9,1 -15,1l-35 0zm13 -11l20 0c7,0 12,0 15,-2 4,-1 7,-3 9,-5 3,-3 5,-7 7,-12 2,-5 3,-11 3,-19 0,-10 -2,-18 -5,-23 -4,-6 -8,-9 -12,-11 -4,-1 -9,-2 -17,-2l-20 0 0 74zm131 -11l12 1c-2,7 -5,13 -10,17 -6,4 -12,6 -20,6 -11,0 -19,-3 -25,-9 -6,-7 -9,-16 -9,-27 0,-12 3,-21 9,-27 6,-7 14,-10 24,-10 9,0 17,3 23,9 6,7 9,16 9,27 0,1 0,2 0,3l-53 0c1,8 3,14 7,18 4,4 9,6 15,6 4,0 8,-1 11,-3 3,-3 5,-6 7,-11zm-39 -19l39 0c0,-6 -2,-11 -4,-14 -4,-4 -9,-6 -15,-6 -6,0 -10,1 -14,5 -4,4 -5,8 -6,15zm62 20l11 -1c1,4 3,8 6,10 3,3 7,4 13,4 5,0 9,-1 12,-3 2,-2 4,-5 4,-8 0,-3 -1,-5 -4,-6 -1,-1 -6,-3 -12,-4 -9,-3 -15,-4 -18,-6 -3,-2 -6,-4 -8,-7 -1,-3 -2,-6 -2,-9 0,-3 0,-6 2,-9 1,-3 3,-5 6,-7 1,-1 4,-2 7,-3 3,-1 7,-1 10,-1 6,0 11,0 15,2 4,2 7,4 9,6 2,3 3,7 4,11l-11 2c-1,-4 -3,-6 -5,-9 -2,-2 -6,-2 -11,-2 -5,0 -9,0 -11,2 -3,2 -4,4 -4,6 0,2 1,3 2,5 0,1 2,2 4,3 1,0 5,1 11,3 8,2 14,4 17,5 3,2 6,4 8,7 2,2 3,6 3,10 0,4 -1,7 -4,11 -2,3 -5,6 -10,8 -4,2 -9,3 -14,3 -9,0 -16,-2 -21,-6 -5,-3 -8,-9 -9,-17zm117 21l0 -9c-4,7 -11,11 -19,11 -6,0 -11,-2 -16,-5 -4,-3 -8,-7 -11,-13 -2,-5 -3,-12 -3,-19 0,-7 1,-13 3,-19 2,-5 6,-10 10,-13 5,-3 10,-4 16,-4 4,0 8,1 11,2 4,2 6,5 8,7l0 -34 12 0 0 96 -11 0zm-37 -35c0,9 1,16 5,21 4,4 9,6 14,6 5,0 9,-2 13,-6 4,-4 6,-11 6,-20 0,-9 -2,-16 -6,-21 -4,-4 -8,-6 -14,-6 -5,0 -9,2 -13,6 -4,4 -5,11 -5,20zm115 13l12 1c-2,7 -5,13 -10,17 -6,4 -12,6 -20,6 -11,0 -19,-3 -25,-9 -6,-7 -9,-16 -9,-27 0,-12 3,-21 9,-27 6,-7 14,-10 24,-10 9,0 17,3 23,9 6,7 9,16 9,27 0,1 0,2 0,3l-53 0c1,8 3,14 7,18 4,4 9,6 15,6 4,0 8,-1 11,-3 3,-3 5,-6 7,-11zm-39 -19l39 0c0,-6 -2,-11 -4,-14 -4,-4 -9,-6 -15,-6 -5,0 -10,1 -14,5 -3,4 -5,8 -6,15zm145 41l-11 0 0 -75c-3,2 -7,5 -12,8 -4,3 -9,4 -12,6l0 -12c6,-3 12,-6 17,-11 5,-4 9,-9 11,-13l7 0 0 97zm33 -22l11 -1c1,5 3,9 6,12 2,2 6,3 10,3 4,0 7,-1 10,-2 3,-2 5,-4 7,-7 1,-3 3,-7 4,-11 1,-5 2,-10 2,-15 0,0 0,-1 0,-2 -3,4 -6,7 -10,9 -4,2 -9,3 -13,3 -8,0 -15,-2 -21,-8 -5,-6 -8,-14 -8,-23 0,-10 3,-18 9,-24 6,-6 13,-9 21,-9 7,0 12,2 18,5 5,4 9,8 11,15 3,6 5,15 5,27 0,12 -2,22 -4,29 -3,8 -7,14 -12,17 -6,4 -12,6 -19,6 -8,0 -14,-2 -19,-6 -4,-5 -7,-10 -8,-18zm48 -43c0,-7 -2,-12 -5,-16 -4,-4 -8,-6 -13,-6 -5,0 -10,2 -14,7 -4,4 -6,9 -6,16 0,6 2,11 6,15 3,4 8,6 13,6 6,0 11,-2 14,-6 3,-4 5,-9 5,-16zm44 13c-5,-2 -9,-4 -11,-8 -3,-3 -4,-7 -4,-12 0,-7 3,-13 8,-18 5,-4 11,-7 20,-7 8,0 15,3 20,7 5,5 8,11 8,18 0,5 -1,9 -4,12 -2,4 -6,6 -10,8 5,2 10,5 13,9 3,5 5,10 5,16 0,8 -3,15 -9,21 -6,5 -14,8 -23,8 -10,0 -17,-3 -23,-8 -6,-6 -9,-13 -9,-22 0,-6 2,-11 5,-15 3,-5 8,-7 14,-9zm-3 -20c0,4 2,8 4,11 3,3 7,4 12,4 5,0 9,-1 11,-4 3,-3 5,-6 5,-11 0,-4 -2,-8 -5,-11 -3,-3 -6,-4 -11,-4 -5,0 -8,1 -11,4 -3,3 -5,7 -5,11zm-4 44c0,4 1,7 3,10 1,4 4,6 7,8 3,1 6,2 10,2 6,0 10,-2 14,-5 4,-4 6,-8 6,-14 0,-6 -2,-11 -6,-14 -4,-4 -9,-6 -14,-6 -6,0 -11,2 -14,6 -4,3 -6,8 -6,13zm125 -45l-12 1c-1,-4 -2,-8 -4,-10 -3,-3 -7,-5 -12,-5 -4,0 -7,1 -10,3 -4,3 -7,7 -9,12 -2,5 -3,13 -3,22 2,-4 6,-7 10,-9 4,-2 9,-4 13,-4 8,0 15,3 21,9 5,6 8,14 8,23 0,6 -1,12 -4,17 -3,5 -6,9 -11,12 -4,3 -10,4 -15,4 -10,0 -19,-4 -25,-11 -6,-7 -9,-19 -9,-36 0,-19 3,-32 10,-41 6,-7 15,-11 25,-11 7,0 14,2 18,6 5,5 8,11 9,18zm-48 42c0,4 0,8 2,12 2,4 4,6 8,8 2,2 6,3 9,3 5,0 10,-2 13,-6 4,-4 6,-9 6,-16 0,-7 -2,-12 -6,-16 -3,-4 -8,-6 -13,-6 -5,0 -10,2 -14,6 -4,4 -5,9 -5,15z"/>
  </g>
 </g>
</svg>
