<?xml version="1.0" encoding="UTF-8"?>
<!DOCTYPE svg PUBLIC "-//W3C//DTD SVG 1.1//EN" "http://www.w3.org/Graphics/SVG/1.1/DTD/svg11.dtd">
<!-- Creator: CorelDRAW X8 -->
<svg xmlns="http://www.w3.org/2000/svg" xml:space="preserve" width="1.19999in" height="0.182126in" version="1.1" style="shape-rendering:geometricPrecision; text-rendering:geometricPrecision; image-rendering:optimizeQuality; fill-rule:evenodd; clip-rule:evenodd"
viewBox="0 0 1200 182"
 xmlns:xlink="http://www.w3.org/1999/xlink">
 <defs>
  <style type="text/css">
   <![CDATA[
    .fil1 {fill:#007EC1;fill-rule:nonzero}
    .fil5 {fill:#1A4466;fill-rule:nonzero}
    .fil3 {fill:#276EA8;fill-rule:nonzero}
    .fil0 {fill:#383332;fill-rule:nonzero}
    .fil4 {fill:#E8EAEB;fill-rule:nonzero}
    .fil2 {fill:#F6F7F8;fill-rule:nonzero}
   ]]>
  </style>
 </defs>
 <g id="Layer_x0020_1">
  <metadata id="CorelCorpID_0Corel-Layer"/>
  <g id="_2565278563680">
   <g id="_1812098045968">
    <path class="fil0" d="M618 44c0,-24 18,-42 42,-42 17,0 30,8 37,21l-14 8c-5,-10 -13,-15 -23,-15 -15,0 -27,13 -27,28 0,15 11,27 27,27 13,0 21,-7 24,-18l-26 0 0 -14 42 0 0 6c0,22 -15,40 -40,40 -25,0 -42,-19 -42,-41l0 0z"/>
    <path class="fil0" d="M728 55l21 0 -10 -31 -11 31zm3 -52l15 0 29 81 -16 0 -5 -14 -31 0 -5 14 -16 0 29 -81 0 0z"/>
    <polygon class="fil0" points="786,3 801,3 801,70 831,70 831,84 786,84 "/>
    <path class="fil0" d="M866 55l22 0 -11 -31 -11 31zm3 -52l15 0 29 81 -15 0 -6 -14 -31 0 -5 14 -16 0 29 -81 0 0z"/>
    <polygon class="fil0" points="954,56 937,84 920,84 945,43 921,3 938,3 954,30 970,3 987,3 963,43 988,84 971,84 "/>
    <polygon class="fil0" points="1019,46 993,3 1010,3 1026,31 1043,3 1060,3 1034,46 1034,84 1019,84 "/>
    <path class="fil1" d="M630 101l0 26 10 0c9,0 15,-6 15,-13 0,-7 -6,-13 -15,-13l-10 0zm-4 -4l15 0c10,0 18,7 18,17 0,9 -8,17 -18,17l-11 0 0 15 -4 0 0 -49z"/>
    <path class="fil1" d="M674 129l20 0 -10 -26 -10 26 0 0zm8 -32l4 0 19 49 -4 0 -5 -14 -23 0 -5 14 -5 0 19 -49 0 0z"/>
    <path class="fil1" d="M721 101l0 23 11 0c8,0 13,-5 13,-11 0,-7 -5,-12 -13,-12l-11 0 0 0zm14 27l-14 0 0 18 -4 0 0 -49 16 0c9,0 16,7 16,16 0,6 -5,12 -11,14l11 19 -4 0 -10 -18 0 0z"/>
    <path class="fil1" d="M770 129l21 0 -10 -26 -11 26 0 0zm8 -32l5 0 18 49 -4 0 -5 -14 -23 0 -5 14 -4 0 18 -49 0 0z"/>
    <path class="fil1" d="M809 138l8 -7c3,5 6,7 11,7 5,0 7,-3 7,-7 0,-4 -5,-5 -10,-6 -6,-2 -14,-5 -14,-14 0,-8 7,-14 16,-14 8,0 13,3 17,7l-8 5c-2,-3 -5,-4 -9,-4 -4,0 -6,2 -6,5 0,4 4,6 10,7 6,2 14,5 14,15 0,7 -7,15 -17,15 -9,0 -15,-4 -19,-9l0 0z"/>
    <polygon class="fil1" points="854,97 883,97 883,106 863,106 863,117 883,117 883,126 863,126 863,137 883,137 883,146 854,146 "/>
    <polygon class="fil1" points="893,97 902,97 917,118 932,97 941,97 941,146 932,146 932,112 917,132 902,112 902,146 893,146 "/>
    <path class="fil1" d="M960 106l0 18 7 0c6,0 9,-4 9,-9 0,-5 -3,-9 -9,-9l-7 0zm-9 -9l17 0c10,0 17,8 17,18 0,9 -7,17 -17,17l-8 0 0 14 -9 0 0 -49 0 0z"/>
    <path class="fil1" d="M1010 123c7,0 10,-4 10,-9 0,-5 -4,-8 -10,-8l-6 0 0 17 6 0zm-15 23l0 -49 15 0c12,0 19,7 19,17 0,6 -3,12 -9,15l10 17 -10 0 -8 -15 -8 0 0 15 -9 0z"/>
    <polygon class="fil1" points="1039,97 1068,97 1068,106 1048,106 1048,117 1068,117 1068,126 1048,126 1048,137 1068,137 1068,146 1039,146 "/>
    <polygon class="fil1" points="1095,43 1071,2 1098,2 1123,43 1098,84 1071,84 "/>
    <polygon class="fil1" points="1140,43 1116,2 1144,2 1168,43 1144,84 1116,84 "/>
    <polygon class="fil2" points="1097,116 1116,84 1144,84 1125,116 1144,147 1116,147 "/>
    <polygon class="fil2" points="1140,116 1159,84 1187,84 1168,116 1187,147 1159,147 "/>
    <polygon class="fil3" points="1154,43 1130,2 1144,2 1168,43 1144,84 1130,84 "/>
    <polygon class="fil3" points="1109,43 1084,2 1098,2 1123,43 1098,84 1084,84 "/>
    <polygon class="fil4" points="1097,116 1116,84 1130,84 1111,116 1130,147 1116,147 "/>
    <polygon class="fil4" points="1140,116 1159,84 1173,84 1154,116 1173,147 1159,147 "/>
   </g>
   <path class="fil5" d="M30 55c0,-30 0,-35 0,-41 -1,-6 -2,-9 -9,-11 -1,0 -4,0 -6,0 -1,0 -2,-1 -2,-1 0,-1 1,-2 4,-2 8,0 20,1 21,1 2,0 17,-1 22,-1 12,0 25,1 35,9 5,3 13,12 13,25 0,14 -6,28 -23,44 16,20 29,37 40,49 10,10 18,12 23,13 3,1 6,1 7,1 1,0 2,0 2,1 0,1 -1,1 -5,1l-13 0c-11,0 -15,-1 -20,-3 -9,-5 -15,-14 -26,-28 -8,-10 -17,-23 -21,-28 -1,-1 -1,-1 -2,-1l-23 -1c-1,0 -2,1 -2,2l0 5c0,18 0,33 1,41 1,5 2,9 8,10 2,0 6,1 8,1 1,0 1,0 1,1 0,1 0,1 -2,1 -11,0 -23,0 -24,0 0,0 -12,0 -18,0 -2,0 -3,0 -3,-1 0,-1 1,-1 2,-1 2,0 4,-1 6,-1 3,-1 4,-5 5,-10 1,-8 1,-23 1,-41l0 -34 0 0 0 0zm15 17l0 0c0,1 1,1 2,2 2,2 11,3 20,3 4,0 9,-1 14,-4 6,-4 11,-15 11,-29 0,-24 -12,-38 -33,-38 -5,0 -11,1 -12,1 -1,1 -2,2 -2,3l0 62 0 0 0 0z"/>
   <path class="fil5" d="M460 89l-1 4 -1 1 2 -5c0,0 0,0 0,0z"/>
   <path class="fil5" d="M557 141c-2,0 -5,0 -8,-1 -4,-2 -9,-5 -16,-21 -12,-29 -41,-107 -44,-115 -2,-6 -3,-7 -4,-7 -2,0 -2,2 -5,8l-43 118c-3,9 -7,16 -15,17 -2,1 -5,1 -6,1 0,0 -1,0 -1,0 -2,0 -5,-1 -8,-2 -7,-2 -8,-11 -8,-16l-12 -99c0,-4 -1,-5 -2,-5 -1,0 -2,1 -3,3l-48 100 -51 -100c-1,-2 -2,-3 -3,-3 -1,0 -2,1 -2,3l-13 105c0,7 0,12 -6,13 -2,1 -3,1 -5,1 -1,0 -1,0 -1,1 0,1 1,1 2,1 5,0 13,0 14,0 2,0 10,0 16,0 2,0 3,0 3,-1 0,-1 -1,-1 -1,-1 -2,0 -4,0 -7,-1 -2,-1 -4,-2 -4,-5 0,-2 0,-5 0,-8l7 -73 1 0c2,7 16,34 21,44 4,9 15,30 19,38 4,6 5,7 6,7 2,0 3,-1 6,-8l40 -83 0 0 8 82c1,3 1,6 0,6 -1,0 -1,1 -1,1 0,1 0,1 4,2 6,0 25,1 29,1 0,0 1,0 2,-1 0,0 0,0 0,0 9,0 19,0 21,0 2,0 11,0 15,0 2,0 3,0 3,-1 0,-1 -1,-1 -2,-1l-2 0c-3,0 -7,-2 -7,-6 0,-3 1,-8 3,-12l9 -29 0 0 1 -1 1 -4c0,0 0,0 0,0l6 -16 14 -45c1,-3 2,-3 3,0l16 45 8 24 15 38c1,3 0,5 -1,5 -1,1 -1,1 -1,2 0,1 2,1 5,1 13,0 27,0 30,0 2,0 4,0 4,-1 0,-1 -1,-1 -2,-1l0 0 0 0z"/>
   <path class="fil5" d="M252 76l-2 -2 -9 -13c0,0 0,0 0,0 -1,-2 -2,-3 -2,-5 0,-2 1,-3 2,-4l0 0c0,0 1,-1 1,-1 0,0 0,0 0,-1 0,0 0,0 0,0l0 0c-1,-7 -3,-13 -5,-19 1,-2 2,-3 3,-5l4 -5 -6 2c-2,1 -3,1 -5,1 0,0 0,0 0,0 7,-3 8,-7 9,-13l1 -1c0,-2 1,-5 2,-6l2 -5 -5 3c-2,1 -4,3 -5,3 -1,1 -2,1 -2,1 -4,2 -8,4 -10,8 0,0 0,0 -1,0 0,-2 1,-3 1,-4l2 -5 -5 3c-1,1 -2,1 -2,2 -9,-7 -20,-11 -32,-11 -30,0 -54,24 -54,54 0,1 0,1 0,1 -3,3 -6,8 -8,11l-2 4 3 2c1,1 2,2 4,4 3,3 6,4 9,5 0,0 1,0 1,0 1,2 2,4 3,5l0 0c7,10 12,21 12,34 9,2 17,7 23,13l0 0c8,6 19,11 30,11 0,0 2,-13 3,-18 0,-5 4,-6 6,-6 2,0 13,0 15,0 0,0 0,0 0,0 5,0 9,-3 9,-8 0,-3 -1,-5 -3,-7 1,-1 2,-3 4,-4l0 0 -1 0c1,-1 2,-2 2,-3 0,-1 -2,-2 -3,-3l0 0c0,0 0,0 0,0 0,-1 0,-1 0,-1 1,0 1,0 1,0 1,0 3,-1 3,-3 0,-1 -1,-7 -1,-7 0,-1 0,-1 1,-1 0,0 0,0 0,0 4,0 6,-2 7,-5 0,0 0,0 0,0 0,0 0,-1 0,-1l0 0zm-26 -58l0 0c1,-6 5,-8 9,-10 1,0 2,-1 3,-1 1,-1 4,-2 5,-3 -1,1 -1,4 -2,6l0 0c-2,6 -3,11 -10,13 -2,1 -4,1 -5,1 0,0 -1,0 -1,0 0,-1 0,-3 1,-6l0 0 0 0zm-10 0l0 0c1,-3 3,-6 7,-9 -1,3 -1,6 -1,8 0,5 0,9 -7,13 -1,-2 -1,-8 1,-12l0 0 0 0zm-14 9l0 0c3,-4 5,-7 10,-10 -1,4 -1,7 -2,10 0,5 0,10 -10,13 0,-2 0,-9 2,-13zm-15 9l0 0c3,-3 5,-6 11,-8 -2,4 -3,7 -3,9 -1,6 -2,10 -12,13 0,-2 1,-10 4,-14zm-5 1l0 0c-2,3 -3,6 -4,9 -1,6 -2,10 -13,11 1,-2 3,-9 6,-13 3,-3 6,-5 11,-7l0 0zm-28 14l0 0c3,-4 6,-5 12,-6 -3,3 -4,6 -5,8 -2,5 -4,9 -14,10 0,-2 3,-9 7,-12l0 0 0 0zm-18 4l0 0c4,-3 6,-4 13,-5 -3,3 -5,6 -6,8 -2,5 -4,8 -12,8 -1,0 -2,0 -3,0 1,-2 4,-8 8,-11l0 0 0 0zm10 24l0 0c-2,0 -4,0 -6,-1 -2,0 -5,-2 -8,-5 -2,-1 -3,-2 -4,-3 4,-1 7,-2 9,-2 4,0 7,1 11,3 1,1 2,2 3,2 1,1 3,3 5,3 -4,2 -7,3 -10,3l0 0 0 0zm18 -5l0 0c-2,0 -2,0 -4,-1 -2,0 -5,-1 -8,-3 -2,-2 -4,-3 -4,-4 4,-1 7,-2 10,-2 3,0 6,0 9,2 1,0 2,1 3,1 2,1 3,3 6,3 -5,2 -8,4 -12,4l0 0 0 0zm16 -8l0 0c-3,0 -6,-1 -9,-3 -2,-1 -4,-1 -5,-2 5,-3 9,-4 13,-4 2,0 4,0 6,1 2,0 3,1 4,1 2,1 3,2 5,2 0,0 1,0 1,0 -6,4 -10,5 -15,5l0 0 0 0zm18 -9l0 0c0,0 0,0 -1,0 -4,0 -11,-3 -12,-4 5,-4 9,-5 14,-5 1,0 3,0 4,0 2,0 3,1 4,1 1,1 3,1 5,1 0,0 0,0 1,0 -5,5 -9,7 -15,7l0 0 0 0zm18 -11l0 0c-1,0 -2,0 -3,0 -4,0 -9,-2 -11,-2 5,-6 10,-8 16,-8 1,0 1,0 2,0 1,0 3,1 4,1 1,0 2,1 3,1 1,0 2,0 3,-1 -5,6 -9,8 -14,9l0 0 0 0zm12 -13l0 0c-1,0 -2,1 -3,1 -4,0 -7,-1 -9,-2 6,-6 10,-6 13,-6l2 0c2,0 5,0 8,-1 -3,5 -7,7 -11,8l0 0 0 0z"/>
   <path class="fil5" d="M212 182l0 -23 8 0c2,0 3,0 4,0 2,1 3,1 4,2 1,1 2,2 2,4 1,1 1,3 1,5 0,2 0,3 0,5 -1,1 -1,2 -2,3 -1,1 -1,2 -2,2 -1,1 -2,1 -3,1 -1,1 -2,1 -3,1l-9 0 0 0zm4 -3l4 0c2,0 3,0 4,0 1,-1 1,-1 2,-2 1,0 1,-1 1,-2 1,-2 1,-3 1,-5 0,-2 0,-4 -1,-5 -1,-2 -2,-2 -3,-3 -1,0 -2,0 -4,0l-4 0 0 17zm30 -2l3 0c0,1 -1,3 -2,4 -2,1 -3,1 -5,1 -3,0 -4,-1 -6,-2 -1,-2 -2,-4 -2,-6 0,-3 1,-5 2,-7 2,-1 3,-2 6,-2 2,0 4,1 5,2 2,2 2,4 2,6 0,1 0,1 0,1l-12 0c0,2 1,3 2,4 0,1 2,2 3,2 1,0 2,0 3,-1 0,-1 1,-1 1,-2l0 0zm-9 -5l9 0c0,-1 0,-3 -1,-3 -1,-1 -2,-2 -3,-2 -2,0 -3,1 -3,2 -1,0 -2,1 -2,3l0 0zm15 5l2 0c0,0 1,1 2,2 0,1 1,1 3,1 1,0 2,0 3,-1 0,0 0,-1 0,-2 0,0 0,-1 0,-1 -1,0 -2,-1 -3,-1 -2,-1 -4,-1 -5,-2 0,0 -1,0 -1,-1 -1,-1 -1,-2 -1,-2 0,-1 0,-2 1,-2 0,-1 0,-2 1,-2 0,0 1,-1 2,-1 0,0 1,0 2,0 1,0 3,0 4,0 0,1 1,1 2,2 0,1 0,2 1,2l-3 1c0,-1 -1,-1 -1,-2 -1,-1 -2,-1 -3,-1 -1,0 -2,0 -2,1 -1,0 -1,1 -1,1 0,1 0,1 0,1 0,1 1,1 1,1 0,0 1,0 3,1 2,0 3,1 4,1 0,0 1,1 2,2 0,0 0,1 0,2 0,1 0,2 -1,3 0,0 -1,1 -2,1 -1,1 -2,1 -3,1 -2,0 -4,0 -5,-1 -1,-1 -2,-2 -2,-4l0 0zm27 5l0 -2c-1,1 -2,2 -4,2 -2,0 -3,0 -4,-1 -1,-1 -2,-2 -3,-3 0,-1 0,-3 0,-5 0,-1 0,-3 0,-4 1,-1 2,-2 3,-3 1,-1 2,-1 3,-1 1,0 2,0 3,0 1,1 1,2 2,2l0 -8 3 0 0 23 -3 0 0 0zm-9 -9c0,3 1,4 2,5 1,1 2,2 3,2 1,0 2,-1 3,-2 1,-1 1,-2 1,-4 0,-2 0,-4 -1,-5 -1,-1 -2,-2 -3,-2 -2,0 -2,1 -3,2 -1,1 -2,2 -2,4zm27 4l3 0c0,1 -1,3 -2,4 -2,1 -3,1 -5,1 -2,0 -4,-1 -6,-2 -1,-2 -2,-4 -2,-6 0,-3 1,-5 2,-7 2,-1 4,-2 6,-2 2,0 4,1 5,2 2,2 2,4 2,6 0,1 0,1 0,1l-12 0c0,2 1,3 2,4 1,1 2,2 3,2 1,0 2,0 3,-1 0,-1 1,-1 1,-2l0 0zm-9 -5l9 0c0,-1 0,-3 -1,-3 0,-1 -2,-2 -3,-2 -1,0 -2,1 -3,2 -1,0 -2,1 -2,3l0 0zm34 10l-2 0 0 -18c-1,1 -2,1 -3,2 -1,1 -2,1 -3,1l0 -2c1,-1 3,-2 4,-3 1,-1 2,-2 3,-3l1 0 0 23 0 0zm8 -5l3 -1c0,1 0,2 1,3 0,1 1,1 2,1 1,0 2,0 3,-1 0,0 1,-1 1,-1 1,-1 1,-2 1,-3 1,-1 1,-2 1,-3 0,0 0,-1 0,-1 -1,1 -2,2 -3,2 -1,1 -2,1 -3,1 -2,0 -3,-1 -5,-2 -1,-1 -1,-3 -1,-5 0,-3 0,-5 2,-6 1,-1 3,-2 5,-2 1,0 2,0 4,1 1,1 2,2 2,4 1,1 2,3 2,6 0,3 -1,5 -1,7 -1,2 -2,3 -3,4 -2,1 -3,1 -5,1 -2,0 -3,0 -4,-1 -1,-1 -2,-3 -2,-4l0 0zm11 -11c0,-1 0,-2 -1,-3 -1,-1 -2,-2 -3,-2 -1,0 -2,1 -3,2 -1,1 -2,2 -2,4 0,1 1,2 2,3 0,1 2,2 3,2 1,0 2,-1 3,-2 1,-1 1,-2 1,-4zm11 3c-2,0 -3,0 -3,-1 -1,-1 -1,-2 -1,-3 0,-2 1,-3 2,-4 1,-1 3,-2 5,-2 2,0 3,1 4,2 2,1 2,2 2,4 0,1 0,2 -1,3 0,1 -1,1 -2,1 1,1 2,2 3,3 1,1 1,2 1,3 0,2 -1,4 -2,5 -1,1 -3,2 -5,2 -3,0 -4,-1 -6,-2 -1,-1 -2,-3 -2,-5 0,-1 1,-2 1,-3 1,-2 2,-2 4,-3l0 0zm-1 -4c0,1 0,2 1,2 1,1 1,1 3,1 1,0 2,0 2,-1 1,0 1,-1 1,-2 0,-1 0,-2 -1,-3 0,-1 -1,-1 -2,-1 -2,0 -2,0 -3,1 -1,1 -1,2 -1,3l0 0zm-1 10c0,1 0,2 1,2 0,1 1,2 1,2 1,1 2,1 3,1 1,0 2,-1 3,-1 1,-1 1,-2 1,-4 0,-1 0,-2 -1,-3 -1,-1 -2,-1 -3,-1 -2,0 -3,0 -4,1 -1,1 -1,2 -1,3l0 0zm29 -10l-3 0c0,-1 0,-2 0,-3 -1,0 -2,-1 -3,-1 -1,0 -2,0 -3,1 -1,1 -1,2 -2,3 0,1 0,3 0,5 0,-1 1,-2 2,-2 1,-1 2,-1 3,-1 2,0 3,1 5,2 1,1 2,3 2,5 0,2 0,3 -1,4 -1,2 -2,2 -3,3 -1,1 -2,1 -3,1 -3,0 -5,-1 -6,-2 -2,-2 -2,-5 -2,-9 0,-4 0,-7 2,-10 1,-1 4,-2 6,-2 2,0 3,0 4,1 1,1 2,3 2,5l0 0zm-11 9c0,1 0,2 1,3 0,1 0,2 1,2 1,1 2,1 2,1 2,0 3,-1 4,-2 0,-1 1,-2 1,-3 0,-2 -1,-3 -1,-4 -1,-1 -2,-2 -4,-2 -1,0 -2,1 -3,2 -1,1 -1,2 -1,3l0 0z"/>
  </g>
 </g>
</svg>
