<?xml version="1.0" encoding="UTF-8"?>
<!DOCTYPE svg PUBLIC "-//W3C//DTD SVG 1.1//EN" "http://www.w3.org/Graphics/SVG/1.1/DTD/svg11.dtd">
<!-- Creator: CorelDRAW X8 -->
<svg xmlns="http://www.w3.org/2000/svg" xml:space="preserve" width="11.2in" height="3.95in" version="1.1" style="shape-rendering:geometricPrecision; text-rendering:geometricPrecision; image-rendering:optimizeQuality; fill-rule:evenodd; clip-rule:evenodd"
viewBox="0 0 11200 3950"
 xmlns:xlink="http://www.w3.org/1999/xlink">
 <defs>
  <style type="text/css">
   <![CDATA[
    .fil1 {fill:#FEFEFE;fill-rule:nonzero}
    .fil0 {fill:#FEFEFE;fill-rule:nonzero}
   ]]>
  </style>
 </defs>
 <g id="Layer_x0020_1">
  <metadata id="CorelCorpID_0Corel-Layer"/>
  <path class="fil0" d="M422 1257c0,-598 0,-706 -8,-828 -7,-131 -38,-192 -164,-219 -31,-7 -96,-11 -131,-11 -15,0 -30,-8 -30,-23 0,-23 19,-31 61,-31 173,0 414,11 433,11 43,0 334,-11 453,-11 241,0 498,23 702,169 95,69 264,257 264,521 0,284 -119,568 -464,886 315,403 575,744 798,982 207,218 372,260 467,276 73,11 127,11 150,11 19,0 35,12 35,23 0,23 -24,31 -92,31l-273 0c-214,0 -310,-19 -410,-73 -165,-88 -299,-276 -518,-564 -161,-211 -341,-467 -418,-567 -15,-16 -27,-23 -49,-23l-472 -8c-19,0 -27,12 -27,31l0 92c0,368 0,671 19,832 12,111 35,196 150,211 53,8 138,15 172,15 23,0 31,12 31,23 0,20 -19,31 -61,31 -211,0 -453,-11 -472,-11 -4,0 -245,11 -360,11 -43,0 -62,-8 -62,-31 0,-11 8,-23 31,-23 34,0 80,-7 115,-15 77,-15 96,-100 111,-211 19,-161 19,-464 19,-832l0 -675 0 0zm307 334l0 0c0,19 8,34 27,46 58,34 234,61 403,61 91,0 199,-11 287,-73 134,-92 234,-299 234,-590 0,-480 -253,-767 -663,-767 -115,0 -219,11 -257,23 -19,7 -31,23 -31,46l0 1254 0 0z"/>
  <path class="fil0" d="M9113 1943l-27 82 -9 25 37 -108c0,0 0,1 -1,1z"/>
  <path class="fil0" d="M11073 2990c-38,0 -96,-4 -154,-23 -80,-23 -191,-84 -329,-426 -234,-582 -836,-2166 -894,-2312 -46,-119 -61,-138 -84,-138 -23,0 -39,23 -84,150l-871 2381c-69,192 -146,338 -322,361 -31,3 -84,7 -111,7 -6,0 -11,1 -16,3 -43,-3 -102,-10 -164,-30 -138,-46 -161,-222 -173,-337l-230 -2006c-8,-61 -27,-88 -50,-88 -23,0 -38,23 -54,54l-981 2021 -1019 -2025c-19,-38 -46,-50 -69,-50 -19,0 -35,23 -39,58l-245 2128c-15,123 -19,242 -130,261 -50,7 -73,11 -100,11 -19,0 -34,12 -34,23 0,23 22,31 57,31 92,0 253,-12 284,-12 27,0 187,12 313,12 39,0 62,-8 62,-31 0,-11 -16,-23 -27,-23 -23,0 -73,-4 -131,-19 -50,-11 -80,-42 -80,-92 0,-54 0,-115 4,-165l130 -1472 15 0c58,134 330,682 430,889 84,177 307,595 395,756 65,119 84,149 115,149 31,0 50,-30 119,-172l813 -1665 7 0 161 1657c8,61 4,111 -15,115 -15,4 -23,15 -23,27 0,15 15,27 96,34 123,12 499,16 575,16 13,0 25,-2 36,-4 2,0 4,0 6,0 180,0 391,-12 433,-12 43,0 208,12 300,12 34,0 57,-8 57,-31 0,-15 -11,-23 -38,-23l-39 0c-65,0 -145,-34 -145,-111 0,-69 19,-161 53,-257l194 -570 0 -2 9 -25 27 -82c1,0 1,-1 1,-1l112 -328 294 -902c19,-57 38,-57 57,0l318 903 177 483 295 781c23,61 0,96 -23,104 -15,3 -26,11 -26,26 0,23 42,23 115,27 264,8 544,8 602,8 42,0 76,-8 76,-31 0,-19 -15,-23 -38,-23l0 0z"/>
  <path class="fil0" d="M4908 1685l-39 -56 -179 -261c0,-1 0,-1 0,-1 -22,-23 -35,-54 -35,-88 0,-32 12,-61 31,-83l0 -1c7,-7 12,-18 12,-30 0,-1 0,-2 0,-4 0,0 0,0 0,-1l0 0c-7,-141 -42,-276 -98,-399 26,-23 51,-52 75,-89l67 -100 -112 43c-34,13 -67,19 -98,21 -1,-1 -2,-3 -3,-4 131,-55 158,-152 191,-273l2 -8c13,-45 35,-99 44,-120l50 -116 -105 69c-35,23 -83,53 -107,65 -17,8 -33,16 -49,23 -80,38 -146,69 -191,158 -5,-4 -9,-8 -13,-12 2,-22 6,-46 14,-71l31 -100 -88 57c-19,12 -36,24 -51,36 -181,-134 -405,-213 -647,-213 -603,0 -1091,488 -1091,1090 0,9 0,17 0,25 -62,59 -116,151 -153,222l-34 67 51 53c17,18 44,44 76,72 69,57 130,92 184,104 8,2 15,3 23,5 21,37 45,72 71,106l-1 1c140,186 225,416 230,666 178,51 339,143 472,265l0 0c164,140 376,226 609,229 0,0 34,-268 47,-367 12,-98 91,-105 127,-105 32,0 267,0 308,0 2,0 4,0 6,0 99,0 179,-80 179,-179 0,-52 -22,-99 -57,-131 16,-34 37,-64 64,-90l0 0 -1 0c12,-12 20,-28 20,-46 0,-30 -20,-55 -48,-62l1 0c-5,-2 -8,-6 -8,-11 0,-7 5,-12 11,-12 2,0 3,0 4,1 38,-2 67,-33 67,-71 0,-10 -27,-138 -27,-138 0,-13 10,-23 22,-23 0,0 10,0 14,0 63,0 116,-41 134,-97 0,-2 1,-3 1,-5 0,-4 -2,-8 -3,-11zm-533 -1182l0 0c39,-123 101,-152 196,-197 16,-7 32,-15 50,-23 27,-14 79,-47 110,-67 -13,31 -34,83 -45,125l-3 8c-35,129 -59,216 -203,261 -33,10 -64,15 -90,15 -15,0 -26,-1 -31,-3 -2,-13 -4,-54 16,-119l0 0zm-200 12l0 0c33,-72 68,-124 154,-179 -19,59 -19,113 -19,160 0,98 0,175 -158,252 -3,-41 -7,-166 23,-233l0 0zm-268 169l0 0c48,-84 93,-140 202,-196 -31,72 -36,137 -40,196 -8,114 -15,204 -217,278 2,-46 12,-200 55,-278zm-312 198l0 0c56,-79 106,-128 220,-171 -39,67 -50,131 -61,189 -20,112 -35,201 -243,251 7,-45 32,-197 84,-269zm-94 16l0 0c-46,62 -64,125 -80,181 -32,109 -57,195 -268,222 11,-44 53,-192 112,-258 63,-72 119,-115 236,-145l0 0zm-581 269l0 0c71,-64 131,-102 250,-119 -52,58 -77,118 -99,172 -43,105 -77,188 -289,192 16,-43 73,-185 138,-245l0 0zm-355 86l0 0c76,-60 125,-90 261,-91 -58,51 -89,109 -117,160 -49,91 -88,162 -249,162 -19,0 -39,-1 -60,-3 21,-40 88,-168 165,-228l0 0zm199 483l0 0c-35,0 -71,-4 -113,-13 -47,-10 -105,-44 -167,-97 -34,-27 -60,-54 -73,-68 72,-25 129,-36 183,-36 67,0 133,19 206,59 25,13 44,29 62,45 30,24 59,48 105,56 -73,38 -137,54 -203,54l0 0zm359 -107l0 0c-21,0 -42,-2 -67,-4 -47,-6 -108,-32 -176,-78 -36,-24 -65,-48 -80,-60 85,-40 153,-57 218,-57 54,0 109,12 172,37 26,11 46,25 67,38 32,22 63,42 110,46 -84,54 -158,78 -244,78l0 0zm328 -146l0 0c-51,0 -112,-20 -185,-58 -38,-20 -71,-40 -87,-51 96,-58 172,-83 251,-83 42,0 86,7 136,21 27,8 49,19 70,30 33,17 65,34 108,34 2,0 5,0 7,-1 -109,89 -196,108 -300,108l0 0zm376 -184l0 0c-8,1 -15,1 -23,1 -96,0 -220,-60 -259,-80 107,-81 188,-112 288,-112 28,0 58,2 91,8 28,5 51,13 74,22 30,11 58,22 92,22 9,0 17,-1 26,-2 -99,101 -185,129 -289,141l0 0zm357 -225l0 0c-16,3 -34,5 -54,5 -91,0 -200,-38 -236,-52 114,-108 206,-148 334,-148 11,0 22,0 34,1 28,1 52,7 76,13 25,7 49,13 75,13 15,0 30,-2 45,-6 -89,112 -172,150 -274,174l0 0zm249 -262l0 0c-21,7 -47,10 -78,10 -65,0 -134,-16 -162,-23 101,-123 182,-123 260,-123l23 0c53,0 107,-2 168,-25 -65,96 -130,133 -211,161l0 0z"/>
  <path class="fil1" d="M4110 3817l0 -459 158 0c36,0 63,2 82,7 27,6 49,17 68,33 24,20 42,46 54,78 12,32 18,68 18,109 0,35 -4,66 -12,93 -8,27 -19,49 -32,67 -12,18 -26,31 -41,41 -16,11 -34,18 -55,24 -22,5 -46,7 -74,7l-166 0zm61 -54l98 0c30,0 54,-2 71,-8 18,-6 31,-14 41,-24 15,-14 26,-34 34,-58 8,-24 12,-54 12,-89 0,-48 -8,-85 -24,-111 -15,-26 -34,-43 -57,-52 -16,-6 -42,-9 -78,-9l-97 0 0 351zm623 -53l58 7c-9,34 -26,61 -51,79 -25,19 -56,28 -95,28 -49,0 -87,-15 -116,-44 -28,-30 -42,-72 -42,-126 0,-56 14,-100 43,-130 29,-31 66,-47 112,-47 44,0 80,15 109,46 28,30 42,73 42,127 0,4 0,9 -1,15l-247 0c2,37 12,65 31,84 18,19 41,29 69,29 21,0 38,-5 53,-16 14,-11 26,-28 35,-52zm-185 -91l185 0c-2,-28 -9,-49 -21,-63 -18,-22 -41,-32 -70,-32 -26,0 -47,8 -65,26 -18,17 -27,40 -29,69zm292 99l56 -9c3,22 11,39 26,51 14,12 34,18 60,18 26,0 45,-5 58,-16 12,-10 18,-22 18,-37 0,-12 -5,-22 -16,-30 -8,-5 -28,-11 -58,-19 -41,-10 -70,-19 -86,-27 -16,-8 -28,-18 -36,-31 -8,-14 -13,-29 -13,-45 0,-15 4,-28 11,-41 6,-13 16,-23 27,-32 9,-6 21,-11 36,-16 15,-4 31,-7 49,-7 26,0 49,4 68,12 20,7 35,17 44,30 9,13 16,30 19,52l-55 8c-2,-18 -10,-31 -21,-41 -12,-10 -29,-14 -51,-14 -26,0 -45,4 -56,12 -11,9 -16,19 -16,30 0,8 2,14 7,20 4,6 11,11 21,15 6,2 22,7 50,15 40,10 68,19 83,26 16,6 29,16 38,29 9,13 13,29 13,48 0,19 -5,37 -16,53 -11,17 -27,30 -48,39 -20,9 -44,13 -70,13 -43,0 -76,-9 -99,-26 -23,-18 -37,-45 -43,-80zm558 99l0 -42c-21,33 -52,49 -93,49 -27,0 -51,-7 -73,-22 -22,-14 -40,-34 -52,-61 -12,-26 -18,-56 -18,-90 0,-33 5,-63 16,-90 11,-27 28,-48 50,-62 22,-14 47,-22 74,-22 20,0 38,5 54,13 15,9 28,20 38,33l0 -165 56 0 0 459 -52 0zm-179 -166c0,43 9,75 28,96 18,21 39,31 63,31 25,0 46,-10 63,-30 17,-20 26,-51 26,-92 0,-45 -9,-79 -26,-100 -18,-21 -40,-32 -65,-32 -25,0 -46,10 -63,31 -17,20 -26,52 -26,96zm548 59l58 7c-9,34 -26,61 -51,79 -25,19 -56,28 -95,28 -48,0 -87,-15 -115,-44 -29,-30 -43,-72 -43,-126 0,-56 14,-100 43,-130 29,-31 66,-47 112,-47 44,0 81,15 109,46 28,30 42,73 42,127 0,4 0,9 0,15l-248 0c2,37 12,65 31,84 18,19 42,29 69,29 21,0 38,-5 53,-16 15,-11 26,-28 35,-52zm-185 -91l185 0c-2,-28 -9,-49 -21,-63 -18,-22 -41,-32 -70,-32 -25,0 -47,8 -65,26 -17,17 -27,40 -29,69zm689 198l-56 0 0 -359c-14,13 -32,26 -54,39 -22,13 -42,22 -59,29l0 -55c31,-14 59,-32 82,-54 24,-21 41,-41 51,-61l36 0 0 461zm153 -106l54 -5c5,26 14,44 27,56 13,11 29,17 49,17 18,0 33,-4 46,-12 13,-8 24,-19 32,-32 8,-13 15,-31 21,-54 6,-22 8,-45 8,-69 0,-2 0,-6 0,-11 -11,18 -27,33 -46,44 -19,11 -41,16 -63,16 -38,0 -70,-13 -97,-41 -26,-27 -39,-64 -39,-109 0,-46 14,-84 41,-112 28,-29 62,-43 103,-43 30,0 57,8 82,24 25,16 43,39 56,69 13,30 20,73 20,129 0,59 -7,106 -19,140 -13,35 -32,62 -57,80 -25,18 -55,27 -89,27 -36,0 -65,-10 -88,-30 -22,-20 -36,-48 -41,-84zm231 -203c0,-32 -9,-58 -26,-77 -17,-19 -38,-28 -62,-28 -25,0 -47,10 -66,31 -18,20 -27,46 -27,79 0,29 9,53 26,71 18,18 39,27 65,27 26,0 48,-9 65,-27 16,-18 25,-43 25,-76zm205 60c-24,-8 -41,-20 -52,-36 -12,-16 -17,-35 -17,-57 0,-34 12,-62 36,-85 24,-22 56,-34 95,-34 40,0 73,12 97,35 25,23 37,52 37,85 0,21 -6,40 -17,56 -11,16 -28,28 -51,36 28,10 50,24 64,45 15,20 22,45 22,73 0,39 -14,72 -41,99 -28,27 -65,40 -110,40 -45,0 -81,-13 -109,-40 -28,-27 -42,-60 -42,-101 0,-29 8,-54 23,-74 15,-21 37,-34 65,-42zm-11 -95c0,21 6,39 20,53 14,14 32,21 55,21 22,0 40,-7 53,-21 14,-14 21,-30 21,-50 0,-21 -7,-38 -21,-53 -14,-14 -32,-21 -54,-21 -21,0 -39,7 -53,21 -14,14 -21,30 -21,50zm-19 212c0,16 4,32 11,47 8,15 19,26 34,34 15,9 31,13 49,13 27,0 49,-9 66,-26 18,-17 27,-39 27,-66 0,-27 -9,-50 -27,-68 -18,-17 -41,-26 -68,-26 -27,0 -49,9 -66,26 -17,18 -26,40 -26,66zm593 -215l-56 5c-5,-22 -12,-38 -22,-49 -15,-16 -34,-24 -56,-24 -18,0 -34,5 -48,15 -18,13 -32,32 -42,57 -10,25 -16,60 -16,106 13,-21 30,-36 50,-46 19,-10 40,-15 62,-15 37,0 69,14 96,42 26,27 39,63 39,107 0,29 -6,56 -18,80 -13,25 -30,44 -51,57 -22,13 -47,20 -74,20 -47,0 -86,-17 -116,-52 -29,-34 -44,-91 -44,-171 0,-88 16,-153 49,-193 29,-35 68,-53 116,-53 36,0 66,10 89,30 23,21 37,49 42,84zm-231 199c0,19 4,38 12,55 8,18 20,32 35,41 14,9 30,14 47,14 24,0 44,-10 61,-29 17,-19 26,-45 26,-78 0,-32 -9,-57 -26,-75 -16,-19 -38,-28 -64,-28 -25,0 -47,9 -65,28 -17,18 -26,42 -26,72z"/>
 </g>
</svg>
