<?xml version="1.0" encoding="utf-8"?>
<!-- Generator: Adobe Illustrator 22.0.1, SVG Export Plug-In . SVG Version: 6.00 Build 0)  -->
<svg version="1.1" id="Capa_1" xmlns="http://www.w3.org/2000/svg" xmlns:xlink="http://www.w3.org/1999/xlink" x="0px" y="0px"
	 viewBox="0 0 250 237" style="enable-background:new 0 0 250 237;" xml:space="preserve">
<style type="text/css">
	.st0{fill:#FFFFFF;}
</style>
<g>
	<path class="st0" d="M100.4,0.3c2,0,4,0,6,0c0.1,0.1,0.2,0.2,0.3,0.2c4.9,0.6,9.2,2.8,13,5.9c10.4,8.4,20.9,16.8,31.3,25.2
		c25.1,20.2,50.1,40.5,75.3,60.6c12.3,9.8,12.3,29-0.2,38.9c-15.8,12.4-31.3,25.1-46.9,37.7c-20,16.1-40.1,32.3-60.1,48.4
		c-4.6,3.7-9.8,5.7-15.8,5.6c-13.9-0.2-24.5-11.1-24.6-24.9c0-3.3,0-6.6,0-9.9c0-0.5,0-0.9,0-1.6c-0.6,0.5-1,0.8-1.4,1.1
		c-12.4,10-24.7,20-37.2,29.9c-14.3,11.3-35.4,4-39.6-13.7c-0.2-0.8-0.1-1.7-0.6-2.5c0-59.8,0-119.7,0-179.5
		c0.3-0.1,0.2-0.4,0.3-0.6C2.3,10.3,8.8,3.8,19.3,0.9c0.9-0.2,1.8-0.1,2.6-0.6c1.9,0,3.8,0,5.8,0c0.1,0.1,0.2,0.2,0.3,0.2
		c4.9,0.6,9.1,2.7,12.9,5.8C53.1,16.2,65.4,26,77.7,35.9c0.3,0.2,0.5,0.6,1,0.5c0-3.7,0-7.5,0-11.2c0-11.9,7.6-21.4,19-24.2
		C98.6,0.7,99.6,0.8,100.4,0.3z M139.9,114.8c-1.3-0.4-1.8,0.6-2.2,1.4c-2.3,4.7-3.9,9.8-5.5,14.8c-0.5,1.6-1,3.1-1.5,4.9
		c-1.4-2.7-2.7-5.1-4-7.6c-0.7-1.3-1.6-2.3-2.8-3.1c-2.3-1.5-4.8-2.6-7.5-3.4c-0.7-0.2-1,0-1.3,0.5c-0.9,1.6-1.9,3.2-2.9,4.8
		c-3.7,6.3-6.5,12.9-7.7,20.1c-0.3,2-0.8,4-0.2,6c0.8,2.8,2.6,4.9,4.5,6.9c1.8,1.9,3.9,1.3,4.6-1.2c1-3.4,1.6-6.9,2-10.4
		s1.5-6.8,1.4-10.4c0-2.7,1.8-5.3,4.4-6.9c0.9,2,1.7,4,1.9,6.1c0.2,2.2,0.8,4.3,2,6.2c0.6,1,1,2.1,1.2,3.2c0.5,2.5,1.2,5,2.5,7.3
		c1.1,2.1,2.9,3,5.2,3.2c0.2,0,0.6,0.1,0.6-0.2c0.2-1,0.7-0.6,1.3-0.4c0.5,0.2,1.1,0.3,1.6,0.4c0.6,0.2,0.8,0,0.9-0.6
		c0.6-5.4,1.4-10.7,1.6-16.1c0.1-1.1,1.1-1.7,0.9-2.8c-0.3-1.8,0.3-3.4,0.9-4.9c0.5-1.2,0.8-2.5,0.6-3.8c0-0.2-0.1-0.7,0.2-0.6
		c1,0.3,0.9-0.5,1.1-0.9c0.6-1.2,1.2-2.4,2-3.6c2.2-3.4,4.8-6.5,7.9-9.1c-1.3-1.4-2.6-2.2-4.3-0.7c-0.1-0.8,0.6-1,0.7-1.5
		c-0.1-0.2-0.4-0.3-0.6-0.3c-2.3-0.5-4.5-0.2-6.7,0.6c-0.9,0.3-1.6,1-2.1,1.8c-2.5,4.3-4.3,8.9-6,13.5c-0.1,0.3-0.1,1-0.6,0.8
		s-0.2-0.8,0-1.1c1.2-3.6,2.5-7.2,4.2-10.6C138.7,116.6,139.1,115.6,139.9,114.8c-0.1-0.1-0.1-0.1-0.2-0.2v0.1
		C139.8,114.8,139.8,114.8,139.9,114.8z M52.4,73.8c-0.9-0.4-1.4,0.1-1.8,0.8c-0.4,0.7-0.8,1.5-1.1,2.2c-2.4,5.6-4.3,11.4-6,17.3
		c-0.1,0.2,0,0.6-0.4,0.7c-0.9-1.8-1.9-3.5-2.7-5.4c-1.5-3.5-4.1-5.7-7.5-7.1c-0.7-0.3-1.5-0.6-2.2-0.9c-2.5-0.9-2.5-0.9-3.8,1.3
		c-0.2,0.4-0.5,0.8-0.7,1.2c-4,6.6-7.4,13.4-8.8,21c-0.4,2.2-1.1,4.5-0.6,6.8c0.7,3.3,2.7,5.7,5.1,7.9c1.5,1.4,3.5,0.7,4.1-1.2
		c0.1-0.5,0.3-1,0.4-1.4c0.8-3.2,1.4-6.5,1.8-9.8c0.3-3.3,1.4-6.4,1.3-9.8c-0.1-2.6,1.7-5,4-6.7c0.5-0.4,0.6-0.1,0.8,0.3
		c0.7,1.8,1.4,3.6,1.6,5.5c0.3,2.2,0.8,4.4,2,6.4c0.6,1,1,2,1.2,3.1c0.5,2.5,1.2,5,2.5,7.3c0.9,1.6,2.2,2.7,4,3.1
		c0.7,0.1,1.6,0.8,2-0.5c0.1-0.3,0.5-0.1,0.7,0c0.6,0.1,1.2,0.3,1.8,0.5c0.7,0.3,0.9,0.2,1-0.6c0.6-5.4,1.3-10.7,1.7-16.1
		c0-0.4-0.1-0.9,0.3-1.2c0.7-0.7,0.7-1.6,0.6-2.5c-0.1-0.9,0.1-1.6,0.4-2.4c0.6-1.7,1.5-3.5,1.1-5.4c0-0.2-0.1-0.6,0.3-0.5
		c0.8,0.3,0.8-0.4,1-0.8c2.2-4.6,5.2-8.6,9-12c0.3-0.3,0.6-0.7,1.1-0.7c-0.1,1.2,0.9,2.2,0.6,3.5c-1.1,4.7-2,9.4-3,14
		c-1.1,5-0.8,9.8,1.8,14.4c1.9,3.3,4.8,5.4,8.6,6c2.8,0.5,5.6,0.2,8.3-0.6c3.6-1.1,6.8-3,9.9-4.9c0.6-0.4,0.9-0.4,1,0.4
		s0.2,1.7,0.6,2.5c0.5-0.8,1-1.6,1.5-2.3c0.2,0.1,0.4,0.2,0.5,0.3c-0.8,2-2.4,3.7-3.3,5.7c0.9,0.1,1.5-0.4,2-0.9
		c0.9-0.8,1.6-1.8,2.3-2.8c0.8-1.1,1.3-2.5,2.5-3.3c1.5-1,2.2-2.5,3.2-3.9c0.5-0.8,1-1.6,1.5-2.4c0.2-0.3,0.4-0.7,0.8-0.7
		c1.2,0,1.5-0.9,2-1.7c0.4-0.7,0.9-1.4,1.3-2.1c0.7,0.6,1.2,1.2,1.8,1.7c1.8,1.7,4.4,2.3,6,4.4c0.7,1,2.3,1.4,3.5,2
		c0.2,0.1,0.4,0.2,0.7,0c1.4-0.8,2.7-0.5,4,0.2c0.7,0.4,1.4,0.7,2.1,1c1.6,0.6,3.2,0.5,4.8-0.4c-0.2-0.2-0.3-0.3-0.5-0.4
		c-4.9-2.5-9.4-5.6-13.4-9.2c-2.2-1.9-3.8-4.4-4.6-7.3c-0.2-0.7-0.9-1.8,0.7-2c0.1,0,0.2-0.2,0.3-0.4c0.5-1,1.3-2,2-2.9
		c0.1-0.2,0.5-0.5,0.2-0.6c-0.9-0.4-0.1-0.8,0-1.1c2.3-3.4,4.6-6.8,7-10.2c0.2-0.2,0.3-0.6,0.7-0.7c0.7,1.2,1.5,2.3,2.3,3.4
		c0.7,1,1.7,1.3,2.7,0.8c2.5-1.2,5.1-1.3,7.7-1.9c0.8-0.2,1-0.1,0.9,0.9c-0.9,5.9-1.7,11.8-2,17.7c0,0.9-0.3,2,0.2,2.7
		c1.1,1.5,1.4,3.2,2.1,4.8c0.4,1,1.5,1.3,2.1,2.2c0.7,1,1.9,0.3,2.8,0.3c0.2,0,0.5-0.1,0.7-0.1c0.6,0,0.9-0.3,0.8-1
		c0-3.1,0.1-6.2,0.4-9.2c0-0.3,0.2-0.6-0.1-0.8c-0.3-0.1-0.5,0.2-0.7,0.4c-0.3,0.4-0.7,0.5-0.7-0.1c0-1.2,0.2-2.3,0.6-3.7
		c0.2,0.5,0.2,0.7,0.3,0.9c0.1,0.3,0.1,0.9,0.6,0.7c0.4-0.1,0.3-0.5,0.4-0.8c0.2-1.1,0.1-2.1-0.5-3.1c-0.7-1.1-0.5-2.6,0.2-3.4
		c0.3,0.3,0.1,1.2,0.7,1.1c0.6-0.1,0.6-0.8,0.7-1.3c0.2-0.9,0.2-1.7,0.3-2.6c0.1-0.6-0.8-0.6-0.5-1.1c0.9-1.3,0.7-2.9,0.9-4.3
		c0.2-1.2,0.4-2.4,1.6-3.1c0.6-0.4,1.3-0.6,1.8-1.3c0.2-0.2,0.6-0.4,0.7-0.1c0.5,0.9,1.1,0.4,1.6,0.1c1.9-1.2,3.9-2.1,6-2.7
		c2.4-0.7,4.9-1.3,7.3-2c0.3-0.1,1,0,0.9-0.6c-0.1-1.3,0.7-0.9,1.2-0.6c0.4,0.2,0.7,0.1,1-0.1c0.3-0.3,0-0.5-0.1-0.7
		c-0.7-1-1.3-2-0.8-3.2c0.1-0.3-0.1-0.5-0.3-0.7c-1.3-2-6.2-3.4-8-2.7c-3.2,1.4-6.6,2.6-9.8,3.9c-0.8,0.3-1.2,0.3-1.8-0.4
		c-0.9-1.2-1.9-2.3-2.8-3.5c-1-1.3-1.5-1.4-2.9-0.5c-0.9,0.5-1.4,1.3-1.7,2.2c-0.2,0.8-0.4,1.5-0.5,2.3c-0.5,2.2-1.8,3.7-3.9,4.5
		c-3,1.1-6.1,1.7-9.5,2.1c0.7-1,1.3-2,1.9-2.8c0.8-1,0.5-1.8-0.4-2.5c-1.2-1-2.7-1.4-4.1-1.6c-1-0.1-1.4-0.4-1-1.3
		c-1.4,0.1-1.8,1.2-2.5,2c-0.6-1.1-1.2-1-1.9,0c-3.1,4.7-5.7,9.7-8.6,14.5c-0.3,0.5-0.4,1.4-1.1,1.3c-0.9-0.2-0.3-1.1-0.3-1.6
		c-0.4-2.4-0.5-4.9-0.1-7.3c0.1-0.9-0.5-1.6-1.2-1.8c-1.2-0.3-2-0.9-3-1.5c-0.9-0.5-1.8-0.8-2.8-0.9c-0.7-0.1-0.9,0.1-1,0.8
		c-0.2,1-0.1,2-0.9,3c0.1-1.1,0.1-2,0.1-2.8c0-0.3,0.3-0.8-0.3-1c-0.4-0.1-0.7,0.2-1,0.4c-0.4,0.3-0.4,0.7-0.4,1.1
		c-0.3,3.3,0,6.6,0.7,9.8c0.9,4.4,2.6,8.6,4.8,12.5c0.2,0.4,0.8,0.9,0.2,1.2c-1.6,0.9-1.7,2.7-2.8,4c-0.3,0.3-0.4,0.7-0.4,1.1
		c0.1,0.8-0.1,1.5-0.5,2.1c-1,1.7-2.1,3.4-3.2,5.1c-0.2,0.3-0.5,0.6-0.8,0.3c-0.6-0.5-1-0.1-1.5,0.2c-3.5,1.9-7,3.7-10.4,5.6
		c-0.8,0.4-1.5,0.6-2.3-0.1c-0.5-0.4-1-0.7-1.4,0.2c-0.1,0.3-0.5,0.6-0.8,0.3c-0.5-0.6-1-0.2-1.5,0c-1.6,0.6-3.2,1.1-5,0.8
		c-1-0.2-1.5-0.6-1.6-1.7c-0.1-2.2-0.1-4.3,0-6.5c0.1-1.8,0.8-3.2,2.6-3.8c0.8-0.3,1.6-0.7,2.4-1.1c3.8-1.7,7.7-3,11.6-4.4
		c1.3-0.5,1.4-1.3,0.5-2.2c-0.2-0.2-0.5-0.5-0.6-0.8c-1.1-2.8-3.5-3.9-6.2-2.6c-2,0.9-4,2-6,3c-0.6,0.3-1.2,0.8-2,0.6l0,0
		c0.2-1.4,0.8-2.7,1.1-4.1c0.2-0.7,0.5-1.1,1.2-1.3c2.4-1,4.9-1.9,7.3-2.9c2.9-1.2,5.9-2.4,8.5-4.2c0.8-0.6,1.7-1.1,2-2.6
		c-1.8,1.5-3.5,2.4-5.2,3.4c-0.2,0.1-0.5,0.5-0.7,0.1c-0.2-0.3-0.2-0.7,0.2-1c0.3-0.2,0.7-0.3,1-0.5c0.9-0.5,1.7-1.1,2.3-2.2
		c-1.8,0.1-3.4-0.8-5,0.2c-0.4,0.2-0.7,0-0.8-0.3c-0.4-0.7-0.9-0.7-1.6-0.6c-1.1,0.1-2.2,0.2-3.2,0.2c-1.7,0.1-1.7,0.1-1.5-1.6
		c0-0.3,0-0.7,0-1c0-2.4-0.1-2.7-2.4-2.8c-5.2-0.4-4.6-0.7-7,3.3c-0.1,0.1-0.2,0.3-0.3,0.4c-0.6,0.9-1.2,1.8-2.2,2.1
		c-1.1,0.3-1.3,1-1.3,1.9c0,0.3,0.2,0.7-0.3,1c-1.2-1.3-2.5-2-4.2-0.5c-0.2-0.8,0.7-1,0.6-1.6c-1.7-0.6-3.4-0.4-5.1-0.2
		c-2.3,0.4-4.1,1.3-4.9,3.7c-0.1,0.2-0.2,0.3-0.3,0.5c-2,3.7-3.5,7.6-5,11.5c-0.2,0.4,0,1.3-0.8,1.1c-0.5-0.2-0.1-0.9,0.1-1.3
		c1-3,2-6,3.4-8.8C50.7,76.6,51.3,75.1,52.4,73.8c-0.1-0.1-0.1-0.1-0.2-0.1C52.3,73.7,52.3,73.8,52.4,73.8z M42.7,149.3
		c-1.1-0.2-1.8,0-2.5,0.2c-0.6,0.1-0.9-0.1-0.7-0.7c1-3.5,1.6-7.1,2.7-10.5c0.3-0.9,0.7-1.4,1.6-1.7c3.2-1,6.2-2.2,9.3-3.5
		c2.4-1,4.7-2,6.9-3.4c0.9-0.6,0.9-0.7,0.8-1.7c-3.3,2.3-7,3.9-10.7,5.4c-0.5,0.2-1,0.4-1.5,0.6c-0.2,0.1-0.3,0-0.4-0.1
		c-0.1-0.2,0-0.3,0.2-0.4c0.3-0.1,0.5-0.2,0.8-0.3c3.7-1.6,7.4-3.3,10.8-5.5c2.7-1.7,3.9-6.1,2.4-9.1c-0.5,0-0.6,0.7-1.3,0.7
		c1.2-1.6,0.6-2.8-0.8-3.8c-2.6,3.5-5.8,6.3-9.4,8.7c-0.8,0.6-2.3,0.5-2.4,2c0,0-0.2,0.1-0.3,0.1c-1.8-0.1-3.4,0.8-5,1.4
		c-0.5,0.2-1,0.4-1.6,0.3c-0.9-0.1-1.7-0.1-2.5,0.6c-0.3,0.3-0.8,0.3-0.5-0.4c0.1-0.2,0.2-0.4,0-0.4c-1.3-0.3-1.4-1.5-2-2.3
		c-0.3-0.3-0.4-0.5-0.8-0.2c-1.2,1-2.5,2-3,3.6c-0.2,0.7-0.7,0.9-1.4,1c-2.5,0.4-5.1,0.9-7.6,1.3c-0.5,0.1-0.8,0.2-0.6,0.8
		c0.2,0.9,1.4,1.9-0.1,2.8v0.2c0.1,3.6,4.2,5.9,6.8,5.5c0.7-0.1,1-0.2,0.9,0.8c-0.3,3.7-1.3,7.4-0.9,11.2c0.1,1-0.5,2-1.2,2.6
		c-1.2,1-2.8,1.2-3.3,3.2c-0.2,0.8-0.7,1.4-0.2,2.2c0.4,0.7,0.4,1.6,1.3,2.1c1.8,0.9,2.2,2.4,1.9,4.2c-0.3,2.4-0.7,4.9-1.1,7.3
		c0,0.3-0.2,0.6,0,0.8c0.6,1.1,1.3,2.3,2,3.3c0.5,0.7,1.9,1.1,2.8,1.1c2.1,0,3.6-2.5,2.9-4.5c-0.1-0.4-0.3-0.8-0.5-1.1
		c-0.1-0.2-0.2-0.5,0-0.6c1-0.2,0.8-1,0.8-1.6c0.2-2.8,1.5-5.4,1.1-8.3c-0.3-2.1,1.9-4.2,4-4.8c3.8-1.1,7.7-1.9,11.2-4
		c2.4-1.4,4.8-2.8,7.3-4.1c0.4-0.2,0.9-0.4,0.6-1.1c-1.2,0.3-2.2,1.1-3.8,0.6c1.4-0.7,2.5-1.2,3.7-1.8c0.5-0.3,1-0.6,0.9-1.3
		c0-0.2,0-0.5-0.3-0.4c-1.1,0.4-2.4,0.5-3.3,1.3c-1.2,1-2.2,1.9-3.9,1.2c-0.4-0.2-0.7,0.1-1.1,0.2c-1.3,0.5-2.6,1-4.1,1.6
		c0.1-0.4,0.1-0.5,0.2-0.7c0.1-0.4,0.9-0.3,0.6-0.9c-0.3-0.5-0.8-0.2-1.3,0c-1.7,0.6-3.3,1.1-4.9,1.7c-0.6,0.2-0.6,0.2-1.2-0.2
		C41.5,149.8,42,149.6,42.7,149.3z M78,126.2c-0.5,1-0.8,0.6-1.2,0c-1.2-1.8-2.4-3.5-4-4.9c-0.5-0.5-1-1-1.9-0.6
		c-0.8,0.4-1.4,0.9-1.5,1.9c-1.1,7.7-2.3,15.3-3.4,23c-0.5,3.5-1.2,6.9-0.5,10.4c0.7,3.6,2.1,6.7,5.4,8.6c0.3,0.2,0.7,0.6,1.1,0.4
		c0.6-0.4,0.9,0,1.3,0.3c0.8,0.6,1.5,1.4,2.5,1.7c0.5,0.2,1.4,0.4,1.5-0.1c0.3-1.2,0.7-0.6,1.2-0.2c0.3,0.2,0.6,0.1,1,0
		c3.4-0.7,6.4-2.3,9.2-4.3c6.8-5.1,10.4-12.2,12.4-20.2c0.1-0.5,0-1.1-0.5-1.4c-0.8,2.2-1.6,4.3-2.5,6.5c-0.1,0.3-0.1,1-0.7,0.7
		c-0.6-0.2-0.3-0.7-0.1-1c0.5-1.2,1-2.5,1.5-3.7c0.6-1.3,0.6-2.9,1.9-3.8c0.3-0.2,0.4-0.9,0.2-1.3c-0.6-1.1-0.2-2.1,0-3.2
		c0.1-0.7,0.2-1.3,1.1-0.9c0.4,0.2,0.7,0,0.9-0.4c0.2-0.4,0-0.7-0.3-1c-1-0.8-0.9-1.5,0.2-1.9c1.1-0.3,1.1-1,1.1-1.8
		c0-0.5,0-1,0-1.5c0-0.3,0.1-0.6-0.3-0.7c-1.2-0.2-1.5-1.2-1.9-2.1c-0.4-1.2-0.8-2.3-1.3-3.5c-0.1-0.4-0.3-0.8-0.7-0.9
		c-1.1-0.3-2.1-0.9-3.2-1.4c-0.8-0.4-1.4-0.1-1.5,0.9c0,2.4-0.3,4.7-0.6,7.1c0,0.3-0.2,0.6,0.2,0.7c0.3,0.1,0.8,0,0.7,0.5
		c0,0.5-0.5,0.6-0.9,0.7c-0.7,0.2-1,0.6-1.1,1.3c-0.3,1.5-0.6,3-1,4.5c-1.2,4.8-2.6,9.5-5.5,13.7c-3,4.3-7.2,6.7-12.2,7.7
		c-0.7,0.1-0.9,0-0.8-0.7c0.1-0.6,0.2-1.2-0.6-1.5c-0.3-0.1-0.3-0.5-0.3-0.9c0-0.8,0.1-1.5,0.3-2.2c0.1-0.2-0.1-0.6,0.4-0.5
		c0.3,0.1,0.3,0.3,0.3,0.6c-0.1,0.5-0.1,0.9,0.4,1.4c0.2-1.1,0.3-2.1,0.5-3c-0.4-0.2-0.7,0.4-1,0c-0.1-1,1.1-1.1,1.2-1.8
		c0.3-1.3,0.6-2.6-0.2-3.9c-0.5-0.8-0.7-1.7-0.4-2.6c0.1-0.3,0.1-0.8,0.6-0.7s0.3,0.5,0.2,0.8c-0.1,0.5,0,1,0.6,1.4
		c0.8-4.5,1.7-9,2.7-13.4C78.5,128,78.5,127.2,78,126.2z M155.7,144.3c1-1.3,1.7-2.7,2.4-4.2c2.1-4.4,3.8-8.9,5.2-13.6
		c1.3-4.4,2.8-8.7,5.1-12.7c1.4-2.5,1.2-4.7-0.5-6.9c-0.4-0.5-0.8-1.1-1.3-1.5c-2.3-2.3-3.4-2.2-5.1,0.7c-1.4,2.4-2.3,5-3.2,7.5
		c-0.2,0.4-0.2,1-0.8,1c-1.2,0.2-1.5,1.1-1.8,2.1c-0.4,1.5-0.7,3-0.8,4.5c-0.1,2.1-0.3,4.1-1.2,6.1c-0.3,0.7-0.3,1.3-0.2,2.1
		c0.4,1.8-0.3,3.7-0.1,5.6c0.1,1.6,0.2,3.1,0.8,4.7c0.6-0.6,1-1.2,1.6-1.8c0.4,1.5-0.1,2.8-0.6,4C155,142.8,155,143.5,155.7,144.3z
		 M155.2,159c0.3-1.4,1.4-2.6,0.9-4.1c-0.8-2.2-1.8-4.3-3.1-6.2c-0.6-1-1.3-1.9-2.3-2.6c-1.1-0.8-2.4-0.8-3.1,0.1
		c-2.3,2.9-2.1,6.6,1.2,8.8c1.3,0.9,2.6,1.7,3.6,2.8c0.2,0.2,0.4,0.6,0.8,0.5C153.9,158,154.5,158.5,155.2,159z M83.1,103.4
		c1.6,0.8,2.6,0,3.5-0.8s1.8-1.4,2.9-1.7c1.2-0.4,1.6-1,1.8-1.9C88.7,100.7,86,102.1,83.1,103.4z M121.1,103.8c1.8,1,1.8,1,2.7,0.5
		C123,103.8,122.3,103.4,121.1,103.8z M96.1,97.9c0.1,0.1,0.3,0.2,0.4,0.3c0.5-0.7,1-1.4,1.5-2.2c0.1-0.2,0-0.3-0.1-0.4
		c-0.2-0.2-0.4-0.1-0.5,0.1C97,96.5,96.5,97.2,96.1,97.9z M141.3,139.5c-0.8,0.8-0.4,1.5-0.4,2.1c0,0.2,0.2,0.4,0.4,0.4
		c0.4,0,0.2-0.4,0.2-0.6C141.5,140.9,141.4,140.3,141.3,139.5z M54.1,101c-0.1-0.6-0.1-1.3-0.2-1.9c0-0.2,0-0.4-0.3-0.3
		c-0.1,0-0.2,0.1-0.3,0.2C53,99.5,53.4,100.6,54.1,101z M158.1,112.1c0-0.3-0.1-0.6-0.3-0.5c-0.7,0.3-0.5,1.1-0.8,1.6
		c-0.1,0.2,0.1,0.4,0.3,0.3C158.2,113.4,157.7,112.5,158.1,112.1z M115,85c1.1,0.2,1.1-0.7,1.5-1.2l-0.1-0.3c-0.6,0-0.7,0.6-1,1
		C115.2,84.5,115.2,84.7,115,85z"/>
	<path class="st0" d="M114.7,237.3c-0.5-0.5-1.1-0.4-1.7-0.5c-4.8-1.1-8.9-3.2-12.6-6.6c0.4-0.3,0.7-0.2,1-0.1
		c8.4,0.5,15.8-2,22.3-7.3c34.9-28.1,69.9-56.3,104.8-84.4c2.7-2.2,5.4-4.3,7.5-7.1c4.3-5.5,6.5-11.8,6.6-18.8c0-1.2,0-2.5,0-3.9
		c2.8,2.7,4.8,5.8,5.9,9.4c3.4,10.2,0.3,20.8-8.1,27.5c-35.7,28.7-71.4,57.5-107,86.2c-3.7,3-7.8,5-12.6,5.5c-0.1,0-0.2,0.1-0.2,0.2
		C118.7,237.3,116.7,237.3,114.7,237.3z"/>
	<path class="st0" d="M36.2,237.3c-1.2-0.6-2.6-0.6-3.9-1c-4-1.2-7.5-3.2-10.7-6.3c2.5,0,4.7,0.1,6.9-0.2c6-0.7,11.4-3,16.1-6.8
		c8.5-6.8,17-13.7,25.5-20.5c0.5-0.4,1-0.8,1.6-1.2c0.5,4.7,1.8,8.9,4.1,12.7c0.3,0.5,0,0.7-0.3,0.9c-7.4,5.9-14.7,11.9-22.1,17.7
		c-3.2,2.5-6.9,3.9-11,4.3c-0.2,0-0.3,0-0.4,0.2C40,237.3,38.1,237.3,36.2,237.3z"/>
	<path class="st0" d="M52.3,75.6c0.1-0.2,0.2-0.3,0.3-0.5c0.1,0.1,0.1,0.1,0.2,0.2c-0.1,0.2-0.1,0.4-0.2,0.5
		C52.5,75.8,52.4,75.7,52.3,75.6z"/>
	<path class="st0" d="M139.9,114.8c-0.1,0-0.1-0.1-0.2-0.1c0,0,0,0,0-0.1C139.8,114.7,139.8,114.8,139.9,114.8L139.9,114.8z"/>
	<path class="st0" d="M52.4,73.8c-0.1,0-0.1-0.1-0.2-0.1C52.3,73.7,52.3,73.8,52.4,73.8L52.4,73.8z"/>
	<path class="st0" d="M95.4,99.8c-0.3,2.7-1.6,4.5-3.8,5.6c-1.8,0.9-3.5,1.9-5.3,2.8c-1.2,0.6-2.4,0.9-4.1,0.7
		c3.7-1.9,7.2-3.4,10.7-5.5c-0.7-0.3-1.3-0.6-2.1-0.9C92.4,101.6,93.8,100.8,95.4,99.8z"/>
	<path class="st0" d="M71.2,101.5c-0.7-0.5-1-2.8-0.6-3.2c0.1-0.1,0.2-0.1,0.3-0.1c0.3,0.1,0.2,0.3,0.2,0.5
		C71.2,99.6,71.2,100.5,71.2,101.5z"/>
	<path class="st0" d="M55.1,86.8c-0.6-1-0.1-1.8,0.2-2.6c0-0.1,0.2-0.3,0.4-0.1c0.2,0.1,0.3,0.3,0.2,0.5
		C55.6,85.3,55.3,86.1,55.1,86.8z"/>
	<path class="st0" d="M73.2,83.9c0.2-0.8-0.1-1.9,1.3-2.3C74.1,82.5,74.3,83.5,73.2,83.9z"/>
	<path class="st0" d="M57,81.8c-0.3,0.5-0.2,1.3-0.9,1.7c-0.2,0.1-0.5-0.1-0.4-0.4c0.3-0.6,0.3-1.4,1-1.7C56.9,81.2,57,81.5,57,81.8
		z"/>
	<path class="st0" d="M27.6,84.3c-0.3,0-0.5-0.2-0.3-0.4c0.4-0.5,0.4-1.3,1.2-1.4c0.2,0,0.4,0.2,0.3,0.4
		C28.5,83.5,28.3,84.2,27.6,84.3z"/>
	<path class="st0" d="M71.2,104.9c-0.6-0.6-0.8-1.3-0.7-2.2C71.6,103.2,71.1,104.1,71.2,104.9z"/>
	<path class="st0" d="M52.6,75.9c0.1-0.2,0.1-0.4,0.2-0.5c0.2-0.2,0.5-0.6,0.8-0.3c0.4,0.5-0.2,0.9-0.3,1.3
		c-0.1,0.3-0.2,0.6-0.6,0.4C52.2,76.5,52.5,76.2,52.6,75.9z"/>
	<path class="st0" d="M70.5,97.9c-0.3-1-0.5-1.7,0.7-2.1C71.3,96.6,70.9,97.2,70.5,97.9z"/>
	<path class="st0" d="M72.7,85.2c0.1,0.1,0.1,0.2,0.1,0.2C72.6,86,73,86.8,72.2,87c-0.2,0-0.4,0-0.4-0.2
		C71.9,86.2,72.1,85.6,72.7,85.2z"/>
	<path class="st0" d="M61.1,73.6c0.3,0.9-0.1,1.3-0.6,1.6l-0.3-0.1C60,74.3,60.7,74.1,61.1,73.6z"/>
	<path class="st0" d="M88.5,72c-0.5,0.5-0.7,0.9-1.3,0.8c-0.1,0-0.3-0.4-0.2-0.5C87.4,71.8,87.8,72.1,88.5,72z"/>
	<path class="st0" d="M74.2,86.3c0,0.1,0,0.1-0.1,0.2H74C74.1,86.3,74.1,86.3,74.2,86.3L74.2,86.3z"/>
	<path class="st0" d="M142.6,127.8c-0.4-0.6-0.2-2.4,0.3-2.7c0.1-0.1,0.2-0.1,0.3,0c0.3,0.1,0.3,0.4,0.2,0.6
		C143.1,126.4,142.9,127.1,142.6,127.8z"/>
	<path class="st0" d="M116.2,124c-0.3,0.5-0.4,1.3-1.2,1.4c-0.2,0-0.4-0.2-0.3-0.3c0.3-0.5,0.5-1.3,1.1-1.5
		C116.1,123.4,116.3,123.6,116.2,124z"/>
	<path class="st0" d="M144.5,122.8c-0.3,0.5-0.2,1.3-0.9,1.6c-0.2,0.1-0.5-0.2-0.3-0.5c0.3-0.6,0.3-1.4,1-1.7
		C144.4,122.2,144.5,122.6,144.5,122.8z"/>
	<path class="st0" d="M140.5,117.8c-0.4,0-0.6-0.1-0.6-0.4c0.2-0.6,0.2-1.2,0.9-1.5c0.1,0,0.4,0.1,0.3,0.3
		C141,116.8,140.7,117.3,140.5,117.8z"/>
	<path class="st0" d="M148.6,114.7c0.4,0.7-0.1,1.1-0.5,1.5c-0.2,0.1-0.3,0-0.4-0.2C147.6,115.3,148.2,115.1,148.6,114.7z"/>
	<path class="st0" d="M54.9,151.1c-1.2,1.3-2.7,1.1-3.9,1.7c-0.5,0.2-1.3,1-1.7,0.4c-0.3-0.5,0.9-0.8,1.4-1.1
		C51.9,151.2,53.2,150.7,54.9,151.1z"/>
	<path class="st0" d="M33.5,169c-1-1.3-0.9-2.2,0.4-3.3C33.8,166.8,33.6,167.9,33.5,169z"/>
	<path class="st0" d="M35.9,164.1c0.1,0.7-0.2,1.2-0.4,1.8c-0.1,0.4-0.1,0.8-0.7,0.6c-0.5-0.2-0.5-0.6-0.3-1
		C34.8,164.9,35.2,164.4,35.9,164.1z"/>
	<path class="st0" d="M48.7,153.4c0,0.5-0.4,0.5-0.7,0.6c-0.4,0.1-0.7,0.6-1.2,0.3c-0.1,0-0.1-0.4-0.1-0.4c0.4-0.6,1.2-0.6,1.8-0.8
		C48.6,153.2,48.7,153.4,48.7,153.4z"/>
	<path class="st0" d="M32.9,173.2c-0.2,0.7-0.3,1.1-0.4,1.6c0,0.2,0,0.5-0.3,0.4c-0.2-0.1-0.4-0.2-0.4-0.4
		C31.9,174.1,31.8,173.4,32.9,173.2z"/>
	<path class="st0" d="M29.1,162.4c1.1,0.3,1.3,0.7,0.9,1.6C29.5,163.5,29.4,163,29.1,162.4z"/>
	<path class="st0" d="M92.8,156.2c-1,1.4-2.2,2.6-3.5,3.6c-0.2,0.1-0.3,0.3-0.5,0.1c-0.2-0.1-0.2-0.4-0.1-0.6
		C90,158.3,90.9,156.7,92.8,156.2z"/>
	<path class="st0" d="M84.5,162.9c-0.3-1.4,0.7-1.6,1.4-1.9c0.6-0.3,1.4-1,1.8-0.3c0.3,0.5-0.8,0.9-1.3,1.2
		C85.9,162.4,85.3,162.7,84.5,162.9z"/>
	<path class="st0" d="M75.4,135.2c0.8,1.4,0.4,2.6,0.2,3.7c-0.1,0.4-0.4,0.3-0.7,0.2c-0.4-0.1-0.6-0.4-0.5-0.8
		C74.8,137.4,75.1,136.5,75.4,135.2z"/>
	<path class="st0" d="M82.4,163.7c-0.6,0.2-1.2,0.3-1.7,0.4c-0.5,0.1-1.1,0-1.1-0.5c-0.1-0.7,0.6-0.7,1.1-0.7
		C81.3,162.8,81.9,162.9,82.4,163.7z"/>
	<path class="st0" d="M95.8,151.4c-0.8-1.2-0.2-2,0.3-2.8c0.2-0.3,0.4-0.1,0.6,0s0.5,0.3,0.3,0.7C96.6,149.9,96.2,150.6,95.8,151.4z
		"/>
</g>
</svg>
