<?xml version="1.0" encoding="UTF-8"?>
<!DOCTYPE svg PUBLIC "-//W3C//DTD SVG 1.1//EN" "http://www.w3.org/Graphics/SVG/1.1/DTD/svg11.dtd">
<!-- Creator: CorelDRAW X8 -->
<svg xmlns="http://www.w3.org/2000/svg" xml:space="preserve" width="2.22666in" height="0.326661in" version="1.1" style="shape-rendering:geometricPrecision; text-rendering:geometricPrecision; image-rendering:optimizeQuality; fill-rule:evenodd; clip-rule:evenodd"
viewBox="0 0 2227 327"
 xmlns:xlink="http://www.w3.org/1999/xlink">
 <defs>
  <style type="text/css">
   <![CDATA[
    .fil0 {fill:#FEFEFE}
   ]]>
  </style>
 </defs>
 <g id="Layer_x0020_1">
  <metadata id="CorelCorpID_0Corel-Layer"/>
  <g id="_2091950964224">
   <path class="fil0" d="M1221 152c0,0 -22,-14 -35,-19 0,0 -42,-19 -50,-28 0,0 -16,-15 -6,-33 0,0 3,-12 21,-12 0,0 22,2 22,20l0 26 79 0 0 -38c0,0 6,-63 -94,-65 0,0 -78,-5 -101,37 0,0 -8,9 -8,42l0 24c0,0 -1,27 13,45 0,0 8,12 27,24 0,0 40,22 63,34 0,0 24,14 21,35 0,0 -2,23 -25,22 0,0 -21,-1 -21,-23l0 -26 -85 0 0 38c0,0 -2,71 107,71 0,0 104,2 109,-73l0 -31c0,0 3,-46 -37,-70z"/>
   <polygon class="fil0" points="813,12 787,179 780,179 755,13 622,13 615,316 694,316 695,88 701,88 743,316 826,316 867,88 872,88 874,316 953,316 945,12 "/>
   <polygon class="fil0" points="344,13 292,315 377,315 408,81 415,81 446,315 531,315 478,13 "/>
   <path class="fil0" d="M2124 148l0 44 21 0 0 48c0,23 -20,24 -20,24 -24,0 -23,-22 -23,-22l0 -166c0,-17 21,-18 21,-18 21,0 21,20 21,20l0 26 80 0c3,-50 -7,-62 -7,-62 -20,-44 -95,-42 -95,-42 -115,0 -102,89 -102,89l0 160c2,83 116,74 118,74 50,-5 65,-21 65,-21 14,-11 18,-25 18,-25 4,-9 5,-35 5,-35l0 -94 -102 0z"/>
   <polygon class="fil0" points="1859,197 1855,197 1774,12 1678,12 1678,316 1756,316 1752,131 1755,131 1839,316 1933,316 1933,12 1853,12 "/>
   <path class="fil0" d="M1485 240c0,0 1,25 -22,25 0,0 -24,1 -24,-24l-1 -229 -86 0 0 227c0,0 -9,86 112,86 0,0 106,1 106,-82l0 -231 -85 0 0 228z"/>
   <path class="fil0" d="M179 152c0,0 -21,-14 -35,-19 0,0 -41,-19 -49,-28 0,0 -16,-15 -7,-33 0,0 4,-12 21,-12 0,0 22,2 22,20l0 26 80 0 0 -38c0,0 6,-63 -94,-65 0,0 -8,-1 -19,0 0,0 -60,3 -82,36 0,1 0,1 0,1 0,0 -9,9 -9,42l0 24c0,0 -1,27 13,45 0,0 8,12 28,24 0,0 39,22 63,34 0,0 24,14 21,35 0,0 -2,23 -25,22 0,0 -22,-1 -22,-23l0 -26 -84 0 0 38c0,0 -3,71 106,71 0,0 104,2 109,-73l0 -31c0,0 4,-46 -37,-70z"/>
  </g>
 </g>
</svg>
